<svg width="74" height="32" viewBox="0 0 74 32" fill="none" xmlns="http://www.w3.org/2000/svg">
<rect x="0.5" y="0.5" width="73" height="31" rx="15.5" stroke="#68E1A1"/>
<path d="M23.7812 12.4642L23.053 12.6434L23.0559 12.6554L23.0593 12.6672L23.7812 12.4642ZM21.25 9.99988C20.8358 9.99988 20.5 10.3357 20.5 10.7499C20.5 11.1641 20.8358 11.4999 21.25 11.4999V9.99988ZM25.3149 17.9172L26.0369 17.7142L25.3149 17.9172ZM33.2163 17.9172L33.9383 18.1203L33.2163 17.9172ZM33.9383 18.1203L35.2039 13.6203L33.76 13.2142L32.4943 17.7142L33.9383 18.1203ZM33.76 11.7142H23.7812V13.2142H33.76V11.7142ZM23.0593 12.6672L24.5929 18.1203L26.0369 17.7142L24.5032 12.2611L23.0593 12.6672ZM26.0369 19.2142H32.4943V17.7142H26.0369V19.2142ZM24.5095 12.2849L24.2281 11.1414L22.7716 11.4999L23.053 12.6434L24.5095 12.2849ZM22.7716 9.99988H21.25V11.4999H22.7716V9.99988ZM24.2281 11.1414C24.0631 10.4711 23.4619 9.99988 22.7716 9.99988V11.4999V11.4999L24.2281 11.1414ZM24.5929 18.1203C24.7749 18.7672 25.3649 19.2142 26.0369 19.2142V17.7142L24.5929 18.1203ZM35.2039 13.6203C35.4731 12.6634 34.754 11.7142 33.76 11.7142V13.2142V13.2142L35.2039 13.6203ZM32.4943 17.7142V19.2142C33.1664 19.2142 33.7564 18.7672 33.9383 18.1203L32.4943 17.7142Z" fill="#68E1A1"/>
<path d="M27.625 21.4643C27.625 21.9729 27.2207 22.375 26.7344 22.375C26.248 22.375 25.8438 21.9729 25.8438 21.4643C25.8438 20.9557 26.248 20.5536 26.7344 20.5536C27.2207 20.5536 27.625 20.9557 27.625 21.4643Z" fill="#68E1A1" stroke="#68E1A1" stroke-width="0.75"/>
<path d="M32.6875 21.4643C32.6875 21.9729 32.2832 22.375 31.7969 22.375C31.3105 22.375 30.9062 21.9729 30.9062 21.4643C30.9062 20.9557 31.3105 20.5536 31.7969 20.5536C32.2832 20.5536 32.6875 20.9557 32.6875 21.4643Z" fill="#68E1A1" stroke="#68E1A1" stroke-width="0.75"/>
<path d="M46 12V20" stroke="#68E1A1" stroke-width="2" stroke-linecap="round"/>
<path d="M42 16H50" stroke="#68E1A1" stroke-width="2" stroke-linecap="round"/>
</svg>
