<svg width="24" height="24" viewBox="0 0 24 24" fill="none" xmlns="http://www.w3.org/2000/svg">
<path d="M6.375 7.28571L5.40397 7.52468L5.4079 7.54064L5.41235 7.55646L6.375 7.28571ZM3 4C2.44772 4 2 4.44772 2 5C2 5.55228 2.44772 6 3 6V4ZM8.4199 14.5565L9.38255 14.2857L8.4199 14.5565ZM20.6426 8.55646L19.68 8.28572L20.6426 8.55646ZM19.9178 14.8272L21.6053 8.82721L19.68 8.28572L17.9925 14.2857L19.9178 14.8272ZM19.68 6.28571H6.375V8.28571H19.68V6.28571ZM5.41235 7.55646L7.45725 14.8272L9.38255 14.2857L7.33765 7.01497L5.41235 7.55646ZM9.38255 16.2857H17.9925V14.2857H9.38255V16.2857ZM7.34603 7.04675L6.97081 5.52207L5.02876 6L5.40397 7.52468L7.34603 7.04675ZM5.02876 4H3V6H5.02876V4ZM6.97081 5.52207C6.75085 4.62826 5.94924 4 5.02876 4V6L5.02876 6L6.97081 5.52207ZM7.45725 14.8272C7.69984 15.6898 8.48652 16.2857 9.38255 16.2857V14.2857L9.38255 14.2857L7.45725 14.8272ZM21.6053 8.82721C21.9641 7.55139 21.0053 6.28571 19.68 6.28571V8.28571V8.28572L21.6053 8.82721ZM17.9925 14.2857V16.2857C18.8885 16.2857 19.6752 15.6898 19.9178 14.8272L17.9925 14.2857Z" fill="#68E1A1"/>
<path d="M11.5 19.2856C11.5 19.9637 10.9609 20.4999 10.3125 20.4999C9.66406 20.4999 9.125 19.9637 9.125 19.2856C9.125 18.6075 9.66406 18.0713 10.3125 18.0713C10.9609 18.0713 11.5 18.6075 11.5 19.2856Z" fill="#68E1A1" stroke="#68E1A1"/>
<path d="M18.25 19.2856C18.25 19.9637 17.7109 20.4999 17.0625 20.4999C16.4141 20.4999 15.875 19.9637 15.875 19.2856C15.875 18.6075 16.4141 18.0713 17.0625 18.0713C17.7109 18.0713 18.25 18.6075 18.25 19.2856Z" fill="#68E1A1" stroke="#68E1A1"/>
</svg>
