<svg width="22" height="22" viewBox="0 0 22 22" fill="none" xmlns="http://www.w3.org/2000/svg">
<path d="M4 7.50024V4.00024H7.5V2.25024H14.5V4.00024H18V7.50024H19.75V14.5002H18V18.0002H14.5V19.7502H7.5V18.0002H4V14.5002H2.25V7.50024H4Z" fill="#AEBCD2"/>
<rect x="0.5" y="7.50024" width="1.75" height="1.75" fill="#495D7B"/>
<rect x="0.5" y="9.24976" width="1.75" height="1.75" fill="#495D7B"/>
<rect x="2.25" y="3.99976" width="1.75" height="1.75" fill="#495D7B"/>
<rect x="4" y="2.25024" width="1.75" height="1.75" fill="#495D7B"/>
<rect x="5.75" y="2.25024" width="1.75" height="1.75" fill="#495D7B"/>
<rect x="14.5" y="2.25024" width="1.75" height="1.75" fill="#495D7B"/>
<rect x="16.25" y="2.25024" width="1.75" height="1.75" fill="#495D7B"/>
<rect x="7.5" y="0.5" width="1.75" height="1.75" fill="#495D7B"/>
<rect x="9.25" y="0.5" width="1.75" height="1.75" fill="#495D7B"/>
<rect x="11" y="0.5" width="1.75" height="1.75" fill="#495D7B"/>
<rect x="12.75" y="0.5" width="1.75" height="1.75" fill="#495D7B"/>
<rect x="2.25" y="5.75" width="1.75" height="1.75" fill="#495D7B"/>
<rect x="5.75" y="5.75" width="1.75" height="1.75" fill="#495D7B"/>
<rect x="7.5" y="5.75" width="1.75" height="1.75" fill="#495D7B"/>
<rect x="5.75" y="7.50024" width="1.75" height="1.75" fill="#495D7B"/>
<rect x="7.5" y="7.50024" width="1.75" height="1.75" fill="#495D7B"/>
<rect x="0.5" y="11" width="1.75" height="1.75" fill="#495D7B"/>
<rect x="0.5" y="12.7502" width="1.75" height="1.75" fill="#495D7B"/>
<rect width="1.75" height="1.75" transform="matrix(-1 0 0 1 21.5 7.50024)" fill="#495D7B"/>
<rect width="1.75" height="1.75" transform="matrix(-1 0 0 1 21.5 9.24976)" fill="#495D7B"/>
<rect width="1.75" height="1.75" transform="matrix(-1 0 0 1 19.75 3.99976)" fill="#495D7B"/>
<rect width="1.75" height="1.75" transform="matrix(-1 0 0 1 19.75 5.75)" fill="#495D7B"/>
<rect width="1.75" height="1.75" transform="matrix(1 0 0 -1 2.25 18.0002)" fill="#495D7B"/>
<rect width="1.75" height="1.75" transform="matrix(1 0 0 -1 4 19.7498)" fill="#495D7B"/>
<rect width="1.75" height="1.75" transform="matrix(1 0 0 -1 5.75 19.7498)" fill="#495D7B"/>
<rect width="1.75" height="1.75" transform="matrix(1 0 0 -1 14.5 19.7498)" fill="#495D7B"/>
<rect width="1.75" height="1.75" transform="matrix(1 0 0 -1 16.25 19.7498)" fill="#495D7B"/>
<rect width="1.75" height="1.75" transform="matrix(1 0 0 -1 7.5 21.5)" fill="#495D7B"/>
<rect width="1.75" height="1.75" transform="matrix(1 0 0 -1 9.25 21.5)" fill="#495D7B"/>
<rect width="1.75" height="1.75" transform="matrix(1 0 0 -1 11 21.5)" fill="#495D7B"/>
<rect width="1.75" height="1.75" transform="matrix(1 0 0 -1 12.75 21.5)" fill="#495D7B"/>
<rect width="1.75" height="1.75" transform="matrix(1 0 0 -1 2.25 16.25)" fill="#495D7B"/>
<rect x="19.75" y="18.0002" width="1.75" height="1.75" transform="rotate(-180 19.75 18.0002)" fill="#495D7B"/>
<rect x="19.75" y="16.25" width="1.75" height="1.75" transform="rotate(-180 19.75 16.25)" fill="#495D7B"/>
<rect width="1.75" height="1.75" transform="matrix(-1 0 0 1 21.5 11)" fill="#495D7B"/>
<rect width="1.75" height="1.75" transform="matrix(-1 0 0 1 21.5 12.7502)" fill="#495D7B"/>
</svg>
