<svg width="18" height="12" viewBox="0 0 18 12" fill="none" xmlns="http://www.w3.org/2000/svg">
<path fill-rule="evenodd" clip-rule="evenodd" d="M6.71133 0.000583074C6.71133 0.000583074 4.77593 -0.0754835 2.68789 1.51002C2.68789 1.51002 0.599854 5.24676 0.599854 9.85351C0.599854 9.85351 1.75722 11.9216 4.93085 12C4.93085 12 5.39448 11.3665 5.86267 10.8091C4.07992 10.2529 3.38618 9.14039 3.38618 9.14039L3.98195 9.45654C4.09713 9.50532 4.21275 9.55494 4.3292 9.60492C5.97485 10.3111 7.78629 11.0885 10.8544 10.569L10.9024 10.5579L10.9025 10.5579C11.5802 10.4012 12.259 10.2443 12.9367 9.93314C13.061 9.86765 13.1932 9.80216 13.3324 9.73327L13.3324 9.73325C13.6981 9.55212 14.1118 9.34728 14.5531 9.05719C14.5531 9.05719 13.8583 10.1697 12.0015 10.7259C12.3842 11.2797 12.9219 11.9144 12.9219 11.9144C15.5232 11.856 16.8213 10.4571 17.2436 10.0019C17.3368 9.9016 17.3873 9.84713 17.3999 9.86302C17.3999 5.2634 15.2993 1.51953 15.2993 1.51953C13.422 0.0873451 11.6677 0.0231649 11.3362 0.0219755L11.1243 0.239477C13.5222 0.952597 14.683 2.06625 14.683 2.06625C11.2041 0.278699 7.44607 0.176486 4.00473 1.58846C3.46364 1.82973 3.1538 1.98781 3.1538 1.98781C3.1538 1.98781 4.3123 0.796899 6.86739 0.161034L6.71133 0.000583074ZM11.3431 0.0160331L11.3806 0.00177095H11.3567L11.3431 0.0160331ZM12.7511 6.33917C12.7511 7.21438 12.0711 7.92388 11.2322 7.92388C10.3934 7.92388 9.71338 7.21438 9.71338 6.33917C9.71338 5.46396 10.3934 4.75446 11.2322 4.75446C12.0711 4.75446 12.7511 5.46396 12.7511 6.33917ZM6.67583 7.92388C7.51467 7.92388 8.19468 7.21438 8.19468 6.33917C8.19468 5.46396 7.51467 4.75446 6.67583 4.75446C5.83699 4.75446 5.15698 5.46396 5.15698 6.33917C5.15698 7.21438 5.83699 7.92388 6.67583 7.92388Z" fill="#AEBCD2"/>
</svg>
