<svg width="50" height="39" viewBox="0 0 50 39" fill="none" xmlns="http://www.w3.org/2000/svg">
<path d="M3.29883 39.0001H0.312378V30.6526H3.29883V39.0001Z" fill="white"/>
<path d="M7.80291 39.0001H4.9522V30.6526H7.80291L9.71572 33.8064C10.0448 34.3487 10.304 34.8409 10.4932 35.2831H10.5796C10.4068 34.5489 10.3204 33.8898 10.3204 33.3058V30.6526H13.1835V39.0001H10.3204L8.27185 35.7086C8.09086 35.4166 7.90163 35.0537 7.70418 34.6198H7.6178C7.7412 35.2623 7.80291 35.7754 7.80291 36.1592V39.0001Z" fill="white"/>
<path d="M20.2816 39.0001H17.3815L18.7143 30.6526H21.7872L22.7497 34.0692C22.8402 34.3779 22.9019 34.6991 22.9349 35.0328H23.0089C23.0171 34.7325 23.0706 34.4112 23.1693 34.0692L24.1319 30.6526H27.1801L28.5252 39.0001H25.6498L25.2796 35.2581C25.2467 34.8743 25.2302 34.599 25.2302 34.4321H25.1809C25.1315 34.6991 25.078 34.9327 25.0204 35.1329L23.7987 39.0001H22.0463L20.948 35.3457C20.8493 35.0036 20.7958 34.6991 20.7876 34.4321H20.7012C20.7012 34.7575 20.6971 34.9744 20.6888 35.0829L20.2816 39.0001Z" fill="white"/>
<path d="M32.837 39.0001H29.8506V30.6526H32.837V39.0001Z" fill="white"/>
<path d="M37.3411 39.0001H34.4904V30.6526H37.3411L39.2539 33.8064C39.583 34.3487 39.8422 34.8409 40.0314 35.2831H40.1178C39.945 34.5489 39.8586 33.8898 39.8586 33.3058V30.6526H42.7217V39.0001H39.8586L37.81 35.7086C37.6291 35.4166 37.4398 35.0537 37.2424 34.6198H37.156C37.2794 35.2623 37.3411 35.7754 37.3411 36.1592V39.0001Z" fill="white"/>
<path d="M50 39.0001H44.3726V30.6526H49.9259V32.9428H47.3591V33.7187H49.6915V35.9089H47.3591V36.7098H50V39.0001Z" fill="white"/>
<path fill-rule="evenodd" clip-rule="evenodd" d="M24.9684 0L22.816 0.727613V3.49254L21.381 4.07463V2.61941L19.0851 3.49254V4.80224L17.3631 5.38433V1.60075L15.2107 2.61941V20.2276L15.4977 21.2463L16.7891 23.7202L14.7802 21.6829L14.4932 17.6082L13.3452 12.5149L9.47079 16.5896L10.1883 19.6455L8.32281 23.7202L9.47079 19.6455L8.7533 17.6082L5.30938 21.9739L6.60085 19.209L4.4484 18.4814L1.00448 23.2836L0 27.5038V28.2314H23.5334V21.2172L24.9684 19.7911L26.4034 21.2583V28.2314H49.9369V27.5038L48.9324 23.2836L45.4885 18.4814L43.336 19.209L44.6275 21.9739L41.1836 17.6082L40.4661 19.6455L41.6141 23.7202L39.7486 19.6455L40.4661 16.5896L36.5917 12.5149L35.4437 17.6082L35.1567 21.6829L33.1478 23.7202L34.4392 21.2463L34.7262 20.2276V2.61941L32.5738 1.60075V5.38433L30.8518 4.80224V3.49254L28.5559 2.61941V4.07463L27.1209 3.49254V0.727613L24.9684 0ZM23.8206 8.73129V13.9701H26.1165V8.73129L24.9685 8.1492L23.8206 8.73129Z" fill="#68E1A1"/>
</svg>
