<svg width="16" height="14" viewBox="0 0 16 14" fill="none" xmlns="http://www.w3.org/2000/svg">
<path d="M8.08696 13C7.89477 13 7.70948 12.9304 7.56507 12.8041C7.01971 12.3276 6.49391 11.8799 6.03001 11.4849L6.02764 11.4829C4.66757 10.3249 3.4931 9.32484 2.67592 8.33973C1.76244 7.23843 1.33696 6.19425 1.33696 5.05354C1.33696 3.94525 1.71733 2.92279 2.40792 2.17436C3.10675 1.41708 4.06565 1 5.10829 1C5.88757 1 6.60123 1.24615 7.22941 1.73155C7.54643 1.97657 7.83379 2.27644 8.08696 2.62621C8.34023 2.27644 8.62749 1.97657 8.94461 1.73155C9.57279 1.24615 10.2865 1 11.0657 1C12.1083 1 13.0673 1.41708 13.7661 2.17436C14.4567 2.92279 14.837 3.94525 14.837 5.05354C14.837 6.19425 14.4116 7.23843 13.4981 8.33962C12.6809 9.32484 11.5066 10.3248 10.1467 11.4827C9.68197 11.8782 9.15535 12.3267 8.60874 12.8043C8.46444 12.9304 8.27905 13 8.08696 13ZM5.10829 1.79011C4.28916 1.79011 3.53666 2.11673 2.98923 2.70988C2.43367 3.31197 2.12767 4.14427 2.12767 5.05354C2.12767 6.01293 2.48455 6.87096 3.28473 7.83559C4.05814 8.76802 5.20851 9.74747 6.54046 10.8816L6.54293 10.8836C7.00858 11.2801 7.53644 11.7296 8.08583 12.2096C8.63851 11.7287 9.16719 11.2785 9.63377 10.8814C10.9656 9.74726 12.1159 8.76802 12.8893 7.83559C13.6894 6.87096 14.0463 6.01293 14.0463 5.05354C14.0463 4.14427 13.7402 3.31197 13.1847 2.70988C12.6374 2.11673 11.8848 1.79011 11.0657 1.79011C10.4657 1.79011 9.91474 1.98069 9.42829 2.3565C8.99477 2.69156 8.69279 3.11512 8.51573 3.41148C8.42469 3.56389 8.26442 3.65486 8.08696 3.65486C7.9095 3.65486 7.74923 3.56389 7.65818 3.41148C7.48124 3.11512 7.17925 2.69156 6.74563 2.3565C6.25918 1.98069 5.70825 1.79011 5.10829 1.79011Z" fill="#AEBCD2" stroke="#AEBCD2" stroke-width="0.8"/>
</svg>
