<svg width="20" height="18" viewBox="0 0 20 18" fill="none" xmlns="http://www.w3.org/2000/svg">
<path d="M10 17C9.74374 17 9.49669 16.9072 9.30415 16.7388C8.577 16.1035 7.87593 15.5065 7.2574 14.9799L7.25424 14.9772C5.44081 13.4332 3.87485 12.0998 2.78528 10.7863C1.56731 9.31791 1 7.92567 1 6.40473C1 4.92701 1.50716 3.56372 2.42795 2.56581C3.35973 1.5561 4.63826 1 6.02844 1C7.06747 1 8.01903 1.3282 8.8566 1.97541C9.2793 2.3021 9.66245 2.70192 10 3.16828C10.3377 2.70192 10.7207 2.3021 11.1435 1.97541C11.9811 1.3282 12.9327 1 13.9717 1C15.3617 1 16.6404 1.5561 17.5722 2.56581C18.493 3.56372 19 4.92701 19 6.40473C19 7.92567 18.4328 9.31791 17.2149 10.7862C16.1253 12.0998 14.5595 13.433 12.7463 14.9769C12.1267 15.5043 11.4245 16.1023 10.6957 16.739C10.5033 16.9072 10.2561 17 10 17ZM6.02844 2.05348C4.93626 2.05348 3.93294 2.48897 3.20303 3.27983C2.46228 4.08263 2.05428 5.19236 2.05428 6.40473C2.05428 7.68391 2.53012 8.82794 3.59703 10.1141C4.62824 11.3574 6.16206 12.6633 7.938 14.1755L7.9413 14.1782C8.56216 14.7069 9.26598 15.3062 9.99849 15.9461C10.7354 15.3049 11.4403 14.7047 12.0624 14.1752C13.8382 12.663 15.3719 11.3574 16.4031 10.1141C17.4699 8.82794 17.9457 7.68391 17.9457 6.40473C17.9457 5.19236 17.5377 4.08263 16.797 3.27983C16.0672 2.48897 15.0637 2.05348 13.9717 2.05348C13.1716 2.05348 12.437 2.30758 11.7884 2.80866C11.2104 3.25541 10.8078 3.82016 10.5717 4.21531C10.4503 4.41852 10.2366 4.53981 10 4.53981C9.76338 4.53981 9.5497 4.41852 9.4283 4.21531C9.19237 3.82016 8.78972 3.25541 8.21156 2.80866C7.56296 2.30758 6.82838 2.05348 6.02844 2.05348Z" fill="#68E1A1" stroke="#68E1A1"/>
</svg>
