<svg width="16" height="16" viewBox="0 0 16 16" fill="none" xmlns="http://www.w3.org/2000/svg">
<path d="M14 4.76185C14.3866 4.76185 14.7 4.44845 14.7 4.06185C14.7 3.67525 14.3866 3.36185 14 3.36185V4.76185ZM2 3.36185C1.6134 3.36185 1.3 3.67525 1.3 4.06185C1.3 4.44845 1.6134 4.76185 2 4.76185V3.36185ZM11.4118 13.415L12.1056 13.5081L11.4118 13.415ZM5.25699 14.7001H10.743V13.3001H5.25699V14.7001ZM12.1056 13.5081L13.3605 4.15493L11.9729 3.96877L10.718 13.3219L12.1056 13.5081ZM2.63955 4.15493L3.89439 13.5081L5.28196 13.3219L4.02712 3.96877L2.63955 4.15493ZM12.6667 4.76185H14V3.36185H12.6667V4.76185ZM3.33333 3.36185H2V4.76185H3.33333V3.36185ZM5.33333 3.36185H3.33333V4.76185H5.33333V3.36185ZM6.03333 4.06185V2.34156H4.63333V4.06185H6.03333ZM6.00814 2.36675H9.99186V0.966752H6.00814V2.36675ZM12.6667 3.36185H10.6667V4.76185H12.6667V3.36185ZM10.6667 3.36185H5.33333V4.76185H10.6667V3.36185ZM9.96667 2.34156V4.06185H11.3667V2.34156H9.96667ZM9.99186 2.36675C9.97795 2.36675 9.96667 2.35547 9.96667 2.34156H11.3667C11.3667 1.58227 10.7511 0.966752 9.99186 0.966752V2.36675ZM6.03333 2.34156C6.03333 2.35547 6.02205 2.36675 6.00814 2.36675V0.966752C5.24886 0.966752 4.63333 1.58227 4.63333 2.34156H6.03333ZM10.743 14.7001C11.4316 14.7001 12.014 14.1906 12.1056 13.5081L10.718 13.3219C10.7197 13.3094 10.7304 13.3001 10.743 13.3001V14.7001ZM5.25699 13.3001C5.26961 13.3001 5.28028 13.3094 5.28196 13.3219L3.89439 13.5081C3.98596 14.1906 4.56836 14.7001 5.25699 14.7001V13.3001Z" fill="#AEBCD2"/>
</svg>
