<svg width="20" height="20" viewBox="0 0 20 20" fill="none" xmlns="http://www.w3.org/2000/svg">
<path fill-rule="evenodd" clip-rule="evenodd" d="M5.28675 2.55958C2.79756 3.74602 0.754274 4.73561 0.746179 4.75868C0.738084 4.78175 0.814006 4.83203 0.914884 4.87038C1.01576 4.9087 1.55014 5.14426 2.10243 5.3938C2.65467 5.64338 3.71006 6.1187 4.44773 6.4501C5.1854 6.78154 5.87382 7.09114 5.97757 7.13819C6.08132 7.18519 6.18551 7.22369 6.20917 7.22369C6.23283 7.22369 6.78378 6.93356 7.4336 6.57896C8.08342 6.22436 8.77673 5.84828 8.97432 5.74326C9.17191 5.6382 9.44767 5.48808 9.58715 5.40968C9.72664 5.33123 9.85813 5.26708 9.87939 5.26708C9.90066 5.26708 10.0991 5.37724 10.3204 5.51193C10.6914 5.73766 12.5884 6.87937 13.098 7.18351C13.3656 7.34331 13.4083 7.34454 13.7274 7.20139C14.0167 7.07162 18.2108 5.36422 19.0214 5.04621C19.3177 4.92995 19.56 4.82456 19.5598 4.81205C19.5595 4.79954 19.4141 4.72323 19.2365 4.64251C19.0589 4.56179 18.5149 4.31375 18.0275 4.09134C17.5401 3.86892 16.9042 3.57929 16.6144 3.44775C15.8566 3.1037 15.336 2.86645 12.4797 1.56344C11.075 0.922626 9.90023 0.399255 9.86909 0.400392C9.83801 0.40153 7.77594 1.37319 5.28675 2.55958ZM0.400146 10.9124V15.7386L0.795325 15.9126C1.0127 16.0083 1.58927 16.2612 2.07666 16.4746C2.56405 16.6881 3.17837 16.9587 3.44182 17.076C3.70527 17.1933 4.14715 17.3876 4.42378 17.5077C4.7004 17.6279 5.26084 17.8738 5.66919 18.0541C6.07754 18.2345 6.65953 18.4903 6.9625 18.6225C7.26547 18.7548 7.88928 19.0289 8.34878 19.2317C8.80829 19.4345 9.20184 19.6004 9.22335 19.6004C9.24486 19.6004 9.25693 18.4012 9.25013 16.9356L9.23777 14.2708L7.38637 13.3115L5.53497 12.3523L5.54221 10.3257L5.54944 8.29923L4.95068 8.04091C4.62137 7.89881 3.74838 7.52064 3.01072 7.20048C1.06678 6.35677 0.436886 6.08612 0.417391 6.08612C0.407906 6.08612 0.400146 8.25792 0.400146 10.9124ZM18.6262 6.49942C18.0993 6.72616 17.4201 7.02152 17.1168 7.1558C16.8135 7.29003 16.3931 7.47136 16.1827 7.55863C15.9723 7.64595 15.4983 7.84962 15.1295 8.01129L14.4589 8.30519V10.337V12.3689L14.0757 12.5648C13.5667 12.8251 11.1542 14.0798 10.9266 14.2026L10.7473 14.2993L10.747 16.9499C10.7468 18.4077 10.7645 19.6004 10.7863 19.6004C10.8082 19.6004 11.1477 19.4596 11.5408 19.2875C12.6581 18.7984 14.7974 17.8563 15.2732 17.6438C15.5103 17.5378 15.7905 17.4153 15.8959 17.3714C16.0733 17.2976 16.8664 16.9485 17.9077 16.486C18.1448 16.3807 18.6159 16.1746 18.9544 16.0281C19.293 15.8815 19.5787 15.7397 19.5895 15.713C19.6002 15.6863 19.6034 13.5096 19.5966 10.8758L19.5843 6.08726L18.6262 6.49942Z" fill="#AEBCD2"/>
</svg>
