<svg width="30" height="30" viewBox="0 0 30 30" fill="none" xmlns="http://www.w3.org/2000/svg">
<path d="M25.7999 8.58731C25.049 8.92462 24.2434 9.15338 23.3969 9.2555C24.2612 8.73077 24.9228 7.89848 25.2364 6.90978C24.4257 7.39571 23.5308 7.74856 22.5772 7.93984C21.8136 7.114 20.7275 6.59961 19.5229 6.59961C17.2117 6.59961 15.3378 8.49945 15.3378 10.8413C15.3378 11.1734 15.3748 11.4978 15.4462 11.808C11.9687 11.6309 8.88503 9.94177 6.82119 7.37503C6.46042 8.00057 6.25519 8.72945 6.25519 9.50751C6.25519 10.9796 6.99456 12.2784 8.11636 13.0384C7.43053 13.0151 6.78549 12.8238 6.22079 12.5059V12.5589C6.22079 14.6138 7.66383 16.3288 9.57723 16.7191C9.22666 16.8148 8.857 16.8678 8.47456 16.8678C8.20433 16.8678 7.94299 16.8406 7.68676 16.7889C8.21959 18.4755 9.76463 19.702 11.5952 19.7356C10.1636 20.8729 8.35856 21.5489 6.39799 21.5489C6.06019 21.5489 5.72746 21.5282 5.39986 21.4907C7.25209 22.6965 9.45106 23.3996 11.8145 23.3996C19.5127 23.3996 23.7208 16.935 23.7208 11.3285L23.7067 10.7793C24.5289 10.1847 25.2402 9.43772 25.7999 8.58731Z" fill="#242635"/>
<mask id="mask0" mask-type="alpha" maskUnits="userSpaceOnUse" x="5" y="6" width="21" height="18">
<path d="M25.7999 8.58731C25.049 8.92462 24.2434 9.15338 23.3969 9.2555C24.2612 8.73077 24.9228 7.89848 25.2364 6.90978C24.4257 7.39571 23.5308 7.74856 22.5772 7.93984C21.8136 7.114 20.7275 6.59961 19.5229 6.59961C17.2117 6.59961 15.3378 8.49945 15.3378 10.8413C15.3378 11.1734 15.3748 11.4978 15.4462 11.808C11.9687 11.6309 8.88503 9.94177 6.82119 7.37503C6.46042 8.00057 6.25519 8.72945 6.25519 9.50751C6.25519 10.9796 6.99456 12.2784 8.11636 13.0384C7.43053 13.0151 6.78549 12.8238 6.22079 12.5059V12.5589C6.22079 14.6138 7.66383 16.3288 9.57723 16.7191C9.22666 16.8148 8.857 16.8678 8.47456 16.8678C8.20433 16.8678 7.94299 16.8406 7.68676 16.7889C8.21959 18.4755 9.76463 19.702 11.5952 19.7356C10.1636 20.8729 8.35856 21.5489 6.39799 21.5489C6.06019 21.5489 5.72746 21.5282 5.39986 21.4907C7.25209 22.6965 9.45106 23.3996 11.8145 23.3996C19.5127 23.3996 23.7208 16.935 23.7208 11.3285L23.7067 10.7793C24.5289 10.1847 25.2402 9.43772 25.7999 8.58731Z" fill="white"/>
</mask>
<g mask="url(#mask0)">
<rect x="-21.0002" y="-21.0005" width="72" height="72" fill="white"/>
</g>
</svg>
